PathFileType	4	(X/Y/Z)	RBDS03static.trc
DataRate	CameraRate	NumFrames	NumMarkers	Units	OrigDataRate	OrigDataStartFrame	OrigNumFrames
150.000000	150.000000	4	48	mm	150.000000	56	150
Frame#	Time	L.Ankle			L.Ankle.Medial			L.ASIS			L.GTR			L.Heel.Bottom			L.Heel.Lateral			L.Heel.Top			L.HF			L.Iliac.Crest			L.Knee			L.Knee.Medial			L.MT1			L.MT2			L.MT5			L.PSIS			L.Shank.Bottom.Lateral			L.Shank.Bottom.Medial			L.Shank.Top.Lateral			L.Shank.Top.Medial			L.Thigh.Bottom.Lateral			L.Thigh.Bottom.Medial			L.Thigh.Top.Lateral			L.Thigh.Top.Medial			L.TT			R.Ankle			R.Ankle.Medial			R.ASIS			R.GTR			R.Heel.Bottom			R.Heel.Lateral			R.Heel.Top			R.HF			R.Iliac.Crest			R.Knee			R.Knee.Medial			R.MT1			R.MT2			R.MT5			R.PSIS			R.Shank.Bottom.Lateral			R.Shank.Bottom.Medial			R.Shank.Top.Lateral			R.Shank.Top.Medial			R.Thigh.Bottom.Lateral			R.Thigh.Bottom.Medial			R.Thigh.Top.Lateral			R.Thigh.Top.Medial			R.TT			
		X1	Y1	Z1	X2	Y2	Z2	X3	Y3	Z3	X4	Y4	Z4	X5	Y5	Z5	X6	Y6	Z6	X7	Y7	Z7	X8	Y8	Z8	X9	Y9	Z9	X10	Y10	Z10	X11	Y11	Z11	X12	Y12	Z12	X13	Y13	Z13	X14	Y14	Z14	X15	Y15	Z15	X16	Y16	Z16	X17	Y17	Z17	X18	Y18	Z18	X19	Y19	Z19	X20	Y20	Z20	X21	Y21	Z21	X22	Y22	Z22	X23	Y23	Z23	X24	Y24	Z24	X25	Y25	Z25	X26	Y26	Z26	X27	Y27	Z27	X28	Y28	Z28	X29	Y29	Z29	X30	Y30	Z30	X31	Y31	Z31	X32	Y32	Z32	X33	Y33	Z33	X34	Y34	Z34	X35	Y35	Z35	X36	Y36	Z36	X37	Y37	Z37	X38	Y38	Z38	X39	Y39	Z39	X40	Y40	Z40	X41	Y41	Z41	X42	Y42	Z42	X43	Y43	Z43	X44	Y44	Z44	X45	Y45	Z45	X46	Y46	Z46	X47	Y47	Z47	X48	Y48	Z48	

57	0.3733333333333334	716.8396606445313	111.4038009643555	1045.407958984375	727.4365844726563	119.7365112304688	1125.783813476563	848.5961303710938	1064.70166015625	1104.044799804688	782.0470581054688	959.8665771484375	1050.287963867188	638.1987915039063	42.58683395385742	1086.635498046875	674.6221923828125	58.07852554321289	1043.202026367188	649.1595458984375	92.79362487792969	1089.7919921875	721.8209838867188	496.3744812011719	1048.127197265625	766.0070190429688	1121.874633789063	1064.580078125	720.864501953125	552.318603515625	1055.797119140625	722.1215209960938	536.1621704101563	1169.984985351563	859.2092895507813	62.13048934936523	1140.582153320313	867.0732421875	73.52265167236328	1099.838623046875	835.1683959960938	55.38108444213867	1031.859130859375	687.2781372070313	1080.638061523438	1181.753295898438	710.297607421875	186.4968566894531	1043.642578125	666.8136596679688	185.6258239746094	1076.467651367188	701.5714721679688	265.3981628417969	1032.68701171875	658.9093627929688	265.558837890625	1065.026123046875	736.0433959960938	644.0881958007813	1048.920654296875	677.0242309570313	650.2830200195313	1093.3505859375	738.0789794921875	754.04248046875	1039.415161132813	683.4927368164063	760.2770385742188	1083.436157226563	772.676513671875	476.888427734375	1094.793823242188	708.5726318359375	110.2761077880859	1411.270385742188	728.057861328125	127.4889678955078	1333.4404296875	872.0623168945313	1072.095458984375	1316.70703125	812.6991577148438	968.1038818359375	1386.063232421875	631.615966796875	45.1858024597168	1364.964965820313	668.6890869140625	66.57496643066406	1410.969848632813	641.854248046875	93.79374694824219	1364.431396484375	724.3748779296875	498.8721313476563	1410.0224609375	805.4440307617188	1134.474731445313	1363.069091796875	728.0009765625	565.724853515625	1400.070434570313	730.1113891601563	541.6192016601563	1286.293579101563	844.8062133789063	58.13742446899414	1322.9541015625	861.8901977539063	75.81826782226563	1371.193969726563	824.9498291015625	51.39604949951172	1437.765502929688	697.36767578125	1084.086547851563	1264.252685546875	694.6669311523438	179.8880767822266	1413.336669921875	662.1231079101563	183.2960205078125	1373.069458007813	688.4010620117188	264.1655883789063	1423.117553710938	655.7611083984375	263.4853515625	1380.063720703125	765.7948608398438	674.2090454101563	1406.554077148438	699.3021850585938	675.54248046875	1375.163330078125	764.338623046875	785.2425537109375	1409.249877929688	703.2002563476563	785.7737426757813	1375.8828125	778.7312622070313	478.3386535644531	1368.712280273438	
58	0.38	716.8400268554688	111.3982391357422	1045.398681640625	727.4382934570313	119.7485275268555	1125.780029296875	848.5889892578125	1064.708740234375	1104.044799804688	782.0292358398438	959.8731079101563	1050.280639648438	638.1972045898438	42.58031845092773	1086.634765625	674.6181640625	58.07714462280273	1043.208251953125	649.1600952148438	92.78083801269531	1089.80078125	721.80419921875	496.3858032226563	1048.133911132813	765.9971923828125	1121.871826171875	1064.577758789063	720.844482421875	552.3238525390625	1055.784912109375	722.13134765625	536.1583862304688	1169.995727539063	859.207275390625	62.12065124511719	1140.57421875	867.072265625	73.52603912353516	1099.827880859375	835.1661376953125	55.39344024658203	1031.850830078125	687.2659301757813	1080.631591796875	1181.741333007813	710.2933959960938	186.5071258544922	1043.641357421875	666.8160400390625	185.6078186035156	1076.474975585938	701.5713500976563	265.3964233398438	1032.689086914063	658.894775390625	265.5664672851563	1065.0419921875	736.0292358398438	644.0831298828125	1048.910888671875	677.0083618164063	650.2772216796875	1093.351318359375	738.0534057617188	754.0393676757813	1039.419067382813	683.465576171875	760.2740478515625	1083.443237304688	772.6658325195313	476.8905334472656	1094.791748046875	708.5714111328125	110.2904815673828	1411.272583007813	728.0514526367188	127.4914855957031	1333.438598632813	872.0470581054688	1072.092529296875	1316.700073242188	812.69287109375	968.1051025390625	1386.059326171875	631.6213989257813	45.17972946166992	1364.9609375	668.6905517578125	66.56874847412109	1410.9619140625	641.8511962890625	93.78387451171875	1364.434448242188	724.3778076171875	498.8786315917969	1410.0185546875	805.4365234375	1134.48046875	1363.063354492188	728.0017700195313	565.7177734375	1400.0595703125	730.0995483398438	541.62744140625	1286.286010742188	844.8203125	58.13430023193359	1322.957885742188	861.8836669921875	75.81106567382813	1371.189575195313	824.95751953125	51.39781951904297	1437.753784179688	697.3544921875	1084.08544921875	1264.255004882813	694.67041015625	179.8865509033203	1413.337890625	662.1204223632813	183.3000946044922	1373.0732421875	688.4036865234375	264.1600341796875	1423.126098632813	655.7645874023438	263.4861755371094	1380.06640625	765.8082275390625	674.210693359375	1406.545654296875	699.3011474609375	675.5263671875	1375.170776367188	764.3338623046875	785.238525390625	1409.253784179688	703.2046508789063	785.7786254882813	1375.88427734375	778.7293090820313	478.3392028808594	1368.704467773438	
59	0.3866666666666667	716.8283081054688	111.3994750976563	1045.39794921875	727.4049682617188	119.8984298706055	1126.17822265625	848.5765991210938	1064.695678710938	1104.040649414063	782.0117797851563	959.8631591796875	1050.277709960938	638.19580078125	42.57864379882813	1086.648193359375	674.6209716796875	58.07788467407227	1043.203491210938	649.1522827148438	92.77909851074219	1089.798217773438	721.7910766601563	496.3915710449219	1048.138427734375	765.9859008789063	1121.877563476563	1064.575561523438	720.838623046875	552.3211669921875	1055.792602539063	722.1248168945313	536.1524658203125	1169.997802734375	859.2140502929688	62.12653732299805	1140.588012695313	867.0712280273438	73.53215789794922	1099.838623046875	835.1670532226563	55.38051986694336	1031.848388671875	687.2446899414063	1080.624877929688	1181.7431640625	710.2825317382813	186.5072631835938	1043.640014648438	666.8065795898438	185.6108856201172	1076.47265625	701.5514526367188	265.403076171875	1032.691772460938	658.8987426757813	265.5592041015625	1065.044555664063	736.0151977539063	644.0785522460938	1048.9111328125	676.9942016601563	650.2747802734375	1093.365844726563	738.0291137695313	754.0404052734375	1039.421630859375	683.4421997070313	760.2648315429688	1083.447998046875	772.6444091796875	476.8764343261719	1094.785034179688	708.5636596679688	110.2922134399414	1411.289428710938	728.05419921875	127.4945068359375	1333.436279296875	872.0393676757813	1072.092407226563	1316.692260742188	812.6903686523438	968.0993041992188	1386.057861328125	631.6211547851563	45.18764877319336	1364.958862304688	668.6923217773438	66.57205200195313	1410.96240234375	641.851318359375	93.79293060302734	1364.432983398438	724.3810424804688	498.8719787597656	1410.017700195313	805.43212890625	1134.482177734375	1363.057373046875	728.0088500976563	565.7086791992188	1400.067016601563	730.0873413085938	541.6257934570313	1286.291625976563	844.8145751953125	58.13574981689453	1322.943969726563	861.8892211914063	75.81433868408203	1371.185791015625	824.9664306640625	51.39950180053711	1437.761352539063	697.3406372070313	1084.08203125	1264.252685546875	694.6753540039063	179.8750610351563	1413.331909179688	662.1270751953125	183.2953643798828	1373.07470703125	688.4051513671875	264.16064453125	1423.124633789063	655.7681274414063	263.4867858886719	1380.076049804688	765.8056640625	674.2129516601563	1406.551147460938	699.3051147460938	675.530517578125	1375.174194335938	764.3447265625	785.2381591796875	1409.256103515625	703.208984375	785.7689819335938	1375.886962890625	778.7252807617188	478.3329772949219	1368.706420898438	
60	0.3933333333333334	716.8373413085938	111.3975830078125	1045.409057617188	727.4462890625	119.7259292602539	1125.774536132813	848.55224609375	1064.703857421875	1104.031372070313	781.9786376953125	959.8672485351563	1050.278076171875	638.2020263671875	42.57851409912109	1086.638061523438	674.6281127929688	58.06838226318359	1043.20458984375	649.158447265625	92.77976226806641	1089.789672851563	721.7874755859375	496.3712768554688	1048.134765625	765.9703369140625	1121.87841796875	1064.578735351563	720.8295288085938	552.3186645507813	1055.79736328125	722.1193237304688	536.1607055664063	1170.005859375	859.2031860351563	62.10871887207031	1140.578369140625	867.06396484375	73.52981567382813	1099.8447265625	835.1619262695313	55.38856887817383	1031.8505859375	687.2266845703125	1080.61962890625	1181.746337890625	710.2833862304688	186.4963836669922	1043.645874023438	666.806884765625	185.6033630371094	1076.470336914063	701.5519409179688	265.3956604003906	1032.689208984375	658.8817749023438	265.5645141601563	1065.0537109375	736.0050048828125	644.0758056640625	1048.920288085938	676.9766845703125	650.2681274414063	1093.36669921875	738.0150756835938	754.0321655273438	1039.425659179688	683.4197998046875	760.2600708007813	1083.46630859375	772.6461791992188	476.8859252929688	1094.787353515625	708.5735473632813	110.2702026367188	1411.280029296875	728.0536499023438	127.492805480957	1333.433471679688	872.0272827148438	1072.093872070313	1316.678955078125	812.6884765625	968.10302734375	1386.048461914063	631.6131591796875	45.18871688842773	1364.962036132813	668.6870727539063	66.56725311279297	1410.967651367188	641.8541870117188	93.78459930419922	1364.435668945313	724.3876953125	498.8760986328125	1410.029052734375	805.4174194335938	1134.48486328125	1363.058715820313	728.02587890625	565.6935424804688	1400.062866210938	730.09130859375	541.6251220703125	1286.287475585938	844.81201171875	58.13788986206055	1322.941772460938	861.89501953125	75.8048095703125	1371.194213867188	824.9637451171875	51.39303588867188	1437.760009765625	697.3253784179688	1084.088134765625	1264.257568359375	694.6712036132813	179.8736572265625	1413.34228515625	662.127685546875	183.2947998046875	1373.08154296875	688.4076538085938	264.1604919433594	1423.130859375	655.7672119140625	263.4780883789063	1380.073974609375	765.8142700195313	674.2049560546875	1406.558715820313	699.3110961914063	675.5324096679688	1375.184936523438	764.3484497070313	785.2491455078125	1409.268188476563	703.2079467773438	785.7767944335938	1375.897827148438	778.7294921875	478.3253784179688	1368.701416015625	
